<?xml version="1.0" encoding="UTF-8"?><svg xmlns="http://www.w3.org/2000/svg" viewBox="0 0 498.3 236.33"><defs><style>.cls-1{fill:#000;stroke-width:0px;}</style></defs><g id="Technologies"><path class="cls-1" d="M436.65,226.7l3.7-.35-.04.98c0,1.09.25,2.09.75,3,.5.91,1.33,1.61,2.49,2.1,1.16.49,2.53.74,4.13.74,2.26,0,3.99-.49,5.18-1.48,1.19-.99,1.78-2.12,1.78-3.4,0-.89-.32-1.7-.95-2.43-.64-.72-2.4-1.7-5.27-2.93-2.22-.97-3.74-1.7-4.55-2.22-1.27-.83-2.21-1.75-2.82-2.73-.6-.98-.91-2.1-.91-3.37,0-1.45.4-2.76,1.2-3.94.8-1.17,1.96-2.06,3.5-2.68,1.54-.62,3.27-.93,5.2-.93,2.3,0,4.24.39,5.83,1.16,1.58.77,2.73,1.8,3.44,3.09.71,1.29,1.07,2.51,1.07,3.68,0,.12,0,.31-.02.58l-3.65.29c0-.8-.07-1.42-.21-1.87-.26-.78-.65-1.45-1.2-1.99-.54-.54-1.28-.97-2.23-1.3-.95-.33-2-.49-3.17-.49-2.06,0-3.66.46-4.8,1.39-.88.71-1.31,1.65-1.31,2.82,0,.69.18,1.31.54,1.86.36.55,1.01,1.08,1.95,1.61.67.37,2.26,1.11,4.76,2.22,2.03.9,3.43,1.61,4.21,2.12,1.03.68,1.82,1.51,2.37,2.48.55.97.83,2.07.83,3.31,0,1.53-.46,2.94-1.4,4.23-.93,1.29-2.22,2.29-3.87,3-1.65.71-3.53,1.06-5.65,1.06-3.2,0-5.82-.7-7.84-2.09-2.03-1.4-3.05-3.91-3.06-7.53"/><polygon class="cls-1" points="409.3 235.84 415.22 207.57 435.63 207.57 434.95 210.79 418.32 210.79 416.47 219.58 432.68 219.58 432 222.8 415.8 222.8 413.75 232.64 431.56 232.64 430.88 235.84 409.3 235.84"/><polygon class="cls-1" points="398.81 235.84 404.73 207.57 408.49 207.57 402.59 235.84 398.81 235.84"/><path class="cls-1" d="M382.01,224.69l.67-3.2h12.38l-2.41,11.51c-1.56.98-3.33,1.78-5.32,2.39-1.99.62-3.95.93-5.88.93-4.11,0-7.19-1.24-9.22-3.72-1.71-2.1-2.57-4.79-2.57-8.08s.75-6.48,2.25-9.27c1.5-2.78,3.39-4.84,5.67-6.17,2.28-1.33,4.82-2,7.61-2,2.01,0,3.8.36,5.4,1.09,1.59.73,2.82,1.7,3.67,2.91.85,1.21,1.46,2.8,1.83,4.75l-3.7.41c-.4-1.94-1.23-3.43-2.48-4.47-1.25-1.03-2.86-1.55-4.83-1.55s-3.95.56-5.73,1.67c-1.77,1.11-3.19,2.79-4.25,5.03-1.06,2.24-1.59,4.79-1.59,7.65s.7,4.99,2.1,6.44c1.4,1.45,3.34,2.18,5.8,2.18s5.1-.81,7.93-2.43l1.27-6.08h-8.6Z"/><path class="cls-1" d="M338.7,224c0-5.04,1.46-9.12,4.37-12.24,2.91-3.12,6.45-4.68,10.6-4.68,3.52,0,6.39,1.15,8.61,3.44,2.22,2.3,3.33,5.37,3.33,9.23,0,2.75-.56,5.3-1.68,7.66-.84,1.76-1.89,3.28-3.16,4.56-1.27,1.28-2.64,2.27-4.09,2.96-1.93.93-3.97,1.39-6.13,1.39s-4.32-.54-6.18-1.62c-1.86-1.08-3.27-2.59-4.22-4.52-.96-1.93-1.44-4-1.44-6.18M342.43,224.19c0,1.66.34,3.18,1.03,4.57.69,1.39,1.71,2.48,3.08,3.26,1.36.78,2.8,1.18,4.3,1.18s2.84-.34,4.15-1.03c1.31-.69,2.48-1.65,3.52-2.87,1.03-1.23,1.85-2.74,2.45-4.53.6-1.79.9-3.56.9-5.29,0-2.82-.79-5.06-2.36-6.73-1.58-1.67-3.52-2.51-5.83-2.51-2.96,0-5.57,1.26-7.83,3.79-2.26,2.53-3.39,5.92-3.39,10.17"/><polygon class="cls-1" points="314.71 235.84 320.61 207.57 324.39 207.57 319.17 232.64 333.84 232.64 333.17 235.84 314.71 235.84"/><path class="cls-1" d="M286.01,224c0-5.04,1.46-9.12,4.37-12.24,2.91-3.12,6.45-4.68,10.6-4.68,3.52,0,6.39,1.15,8.61,3.44,2.22,2.3,3.33,5.37,3.33,9.23,0,2.75-.56,5.3-1.68,7.66-.84,1.76-1.89,3.28-3.16,4.56-1.27,1.28-2.64,2.27-4.09,2.96-1.93.93-3.97,1.39-6.13,1.39s-4.32-.54-6.18-1.62c-1.86-1.08-3.27-2.59-4.22-4.52-.96-1.93-1.44-4-1.44-6.18M289.73,224.19c0,1.66.34,3.18,1.03,4.57.69,1.39,1.71,2.48,3.08,3.26,1.36.78,2.8,1.18,4.3,1.18s2.84-.34,4.15-1.03c1.31-.69,2.48-1.65,3.52-2.87,1.03-1.23,1.85-2.74,2.45-4.53.6-1.79.9-3.56.9-5.29,0-2.82-.79-5.06-2.36-6.73-1.58-1.67-3.52-2.51-5.83-2.51-2.96,0-5.57,1.26-7.83,3.79-2.26,2.53-3.39,5.92-3.39,10.17"/><path class="cls-1" d="M255.8,235.84l5.92-28.28h3.66l4.76,10.61c1.45,3.24,2.6,5.97,3.45,8.18.49,1.28,1.05,3.02,1.7,5.21.35-2.38.78-4.83,1.31-7.37l3.47-16.63h3.68l-5.9,28.28h-3.74l-7.02-16.34c-1.25-2.88-2.22-5.42-2.91-7.62-.19,1.84-.57,4.1-1.12,6.77l-3.59,17.19h-3.68Z"/><polygon class="cls-1" points="227.01 235.84 232.93 207.57 236.69 207.57 234.24 219.31 248.9 219.31 251.35 207.57 255.13 207.57 249.23 235.84 245.45 235.84 248.22 222.51 233.59 222.51 230.79 235.84 227.01 235.84"/><path class="cls-1" d="M220.64,225.89l3.74.52c-1.18,3.27-2.91,5.73-5.17,7.41-2.26,1.67-4.8,2.51-7.62,2.51-3.43,0-6.16-1.05-8.17-3.15-2.01-2.1-3.02-5.1-3.02-9.01,0-5.09,1.53-9.3,4.59-12.63,2.73-2.97,6.11-4.46,10.16-4.46,3,0,5.42.8,7.28,2.41,1.86,1.61,2.93,3.77,3.23,6.48l-3.53.33c-.37-2.04-1.14-3.57-2.3-4.58-1.16-1.01-2.67-1.51-4.5-1.51-3.46,0-6.26,1.54-8.39,4.61-1.85,2.65-2.78,5.79-2.78,9.43,0,2.91.71,5.12,2.14,6.66,1.43,1.53,3.29,2.29,5.58,2.29,1.95,0,3.72-.64,5.3-1.91,1.58-1.27,2.73-3.07,3.45-5.4"/><polygon class="cls-1" points="172.25 235.84 178.17 207.57 198.58 207.57 197.9 210.79 181.28 210.79 179.43 219.58 195.63 219.58 194.95 222.8 178.75 222.8 176.71 232.64 194.51 232.64 193.83 235.84 172.25 235.84"/><polygon class="cls-1" points="155.32 235.84 160.54 210.79 151.27 210.79 151.94 207.57 174.2 207.57 173.52 210.79 164.32 210.79 159.1 235.84 155.32 235.84"/></g><g id="SICKL"><polygon class="cls-1" points="136.68 124.14 125.52 189.42 159.9 189.42 171.06 124.14 136.68 124.14"/><polygon class="cls-1" points="480.06 106.86 446.88 106.86 465.12 0 498.3 0 480.06 106.86"/><polygon class="cls-1" points="157.92 0 151.68 36.42 186.06 36.42 192.3 0 157.92 0"/><path class="cls-1" d="M113.28,136.44l-.18,2.64c-2.47,27.91-25.19,49.32-53.16,50.28l-2.64.06H0v-31.5h56.55c.5,0,1-.02,1.5-.07l1.13-.11c11.04-1.28,20.29-10.37,21.94-21.36l.18-1.8v-10.44h31.98v12.3"/><path class="cls-1" d="M70.93,86.28h50.78l5.43-31.98h-61.5c-27.81.35-48.92,24.04-52.2,49.86l-.24,2.7h32.64l.54-1.86c3.16-9.73,11.8-16.99,21.9-18.54l1.19-.11c.48-.04.97-.07,1.45-.07"/><polygon class="cls-1" points="139.62 106.86 174 106.86 183 54.3 148.62 54.3 139.62 106.86"/><path class="cls-1" d="M246.64,54.3h54.46l-5.52,31.98h-46.09c-.63,0-1.27.04-1.9.1l-.73.08c-7.59.97-14.48,6.24-17.36,13.32-.24.59-.42,1.21-.59,1.83l-.19.71-.94,4.54h-32.58.06l.12-2.64c2.19-25.78,21.92-46.38,47.58-49.68l1.49-.14c.73-.07,1.46-.1,2.19-.1"/><path class="cls-1" d="M193.2,133.04v-8.9h32.64l-.17,9.61c.03.52.05,1.03.11,1.53l.18,1.1c2.36,11.13,11.36,19.76,22.68,21.3l.94.12c.62.08,1.24.12,1.86.12h32.91l-5.34,31.5h-32.24c-1.07,0-2.14-.07-3.19-.21l-1.11-.15c-26.17-4.11-46.48-25.35-49-51.77l-.1-.96c-.09-.9-.17-2.39-.17-3.29"/><polygon class="cls-1" points="477.06 124.14 465.9 189.42 432.72 189.42 443.88 124.14 477.06 124.14"/><polygon class="cls-1" points="412.62 189.42 375.56 189.42 360.24 139.08 341.1 153.66 334.98 189.42 300.72 189.42 311.88 124.14 392.76 124.14 412.62 189.42"/><polygon class="cls-1" points="435.72 54.3 388.32 54.3 356.46 86.28 352.62 86.28 367.38 0 333.12 0 314.88 106.86 383.34 106.86 435.72 54.3"/></g></svg>
