<?xml version="1.0" encoding="UTF-8"?><svg id="Layer_1" xmlns="http://www.w3.org/2000/svg" viewBox="0 0 127.14 135.12"><defs><style>.cls-1{fill:#000;stroke-width:0px;}</style></defs><path class="cls-1" d="M113.28,82.14l-.18,2.64c-2.47,27.91-25.19,49.32-53.16,50.28l-2.64.06H0v-31.5h56.55c.5,0,1-.02,1.5-.07l1.13-.11c11.04-1.28,20.29-10.37,21.94-21.36l.18-1.8v-10.44h31.98v12.3"/><path class="cls-1" d="M70.93,31.98h50.78L127.14,0h-61.5C37.83.35,16.72,24.04,13.44,49.86l-.24,2.7h32.64l.54-1.86c3.16-9.73,11.8-16.99,21.9-18.54l1.19-.11c.48-.04.97-.07,1.45-.07"/></svg>
