<?xml version="1.0" encoding="utf-8"?>
<!-- Generator: Adobe Illustrator 28.4.1, SVG Export Plug-In . SVG Version: 6.00 Build 0)  -->
<svg version="1.1"
	 id="svg3412" xmlns:dc="http://purl.org/dc/elements/1.1/" xmlns:sodipodi="http://sodipodi.sourceforge.net/DTD/sodipodi-0.dtd" xmlns:rdf="http://www.w3.org/1999/02/22-rdf-syntax-ns#" xmlns:cc="http://creativecommons.org/ns#" xmlns:svg="http://www.w3.org/2000/svg" xmlns:inkscape="http://www.inkscape.org/namespaces/inkscape"
	 xmlns="http://www.w3.org/2000/svg" xmlns:xlink="http://www.w3.org/1999/xlink" x="0px" y="0px" viewBox="0 0 1365.8 280.5"
	 style="enable-background:new 0 0 1365.8 280.5;" xml:space="preserve">
<sodipodi:namedview  bordercolor="#666666" borderopacity="1.0" id="namedview3414" inkscape:current-layer="svg3412" inkscape:cx="683.4385" inkscape:cy="139.84203" inkscape:deskcolor="#d1d1d1" inkscape:pagecheckerboard="0" inkscape:pageopacity="0.0" inkscape:showpageshadow="2" inkscape:window-height="1056" inkscape:window-maximized="1" inkscape:window-width="1874" inkscape:window-x="46" inkscape:window-y="24" inkscape:zoom="0.95107314" pagecolor="#ffffff" showgrid="false">
	</sodipodi:namedview>
<path d="M462.5,248.8l3.7-0.3l0,1c0,1.1,0.3,2.1,0.8,3c0.5,0.9,1.3,1.6,2.5,2.1c1.2,0.5,2.5,0.7,4.1,0.7c2.3,0,4-0.5,5.2-1.5
	c1.2-1,1.8-2.1,1.8-3.4c0-0.9-0.3-1.7-0.9-2.4c-0.6-0.7-2.4-1.7-5.3-2.9c-2.2-1-3.7-1.7-4.6-2.2c-1.3-0.8-2.2-1.7-2.8-2.7
	c-0.6-1-0.9-2.1-0.9-3.4c0-1.5,0.4-2.8,1.2-3.9c0.8-1.2,2-2.1,3.5-2.7c1.5-0.6,3.3-0.9,5.2-0.9c2.3,0,4.2,0.4,5.8,1.2
	c1.6,0.8,2.7,1.8,3.4,3.1c0.7,1.3,1.1,2.5,1.1,3.7c0,0.1,0,0.3,0,0.6l-3.6,0.3c0-0.8-0.1-1.4-0.2-1.9c-0.3-0.8-0.7-1.4-1.2-2
	c-0.5-0.5-1.3-1-2.2-1.3c-0.9-0.3-2-0.5-3.2-0.5c-2.1,0-3.7,0.5-4.8,1.4c-0.9,0.7-1.3,1.6-1.3,2.8c0,0.7,0.2,1.3,0.5,1.9
	c0.4,0.5,1,1.1,1.9,1.6c0.7,0.4,2.3,1.1,4.8,2.2c2,0.9,3.4,1.6,4.2,2.1c1,0.7,1.8,1.5,2.4,2.5c0.6,1,0.8,2.1,0.8,3.3
	c0,1.5-0.5,2.9-1.4,4.2c-0.9,1.3-2.2,2.3-3.9,3c-1.6,0.7-3.5,1.1-5.7,1.1c-3.2,0-5.8-0.7-7.8-2.1
	C463.5,254.9,462.5,252.4,462.5,248.8"/>
<polygon points="435.1,257.9 441.1,229.6 461.5,229.6 460.8,232.9 444.2,232.9 442.3,241.7 458.5,241.7 457.9,244.9 441.6,244.9 
	439.6,254.7 457.4,254.7 456.7,257.9 "/>
<polygon points="424.7,257.9 430.6,229.6 434.3,229.6 428.4,257.9 "/>
<path d="M407.9,246.8l0.7-3.2h12.4l-2.4,11.5c-1.6,1-3.3,1.8-5.3,2.4c-2,0.6-4,0.9-5.9,0.9c-4.1,0-7.2-1.2-9.2-3.7
	c-1.7-2.1-2.6-4.8-2.6-8.1c0-3.4,0.7-6.5,2.2-9.3c1.5-2.8,3.4-4.8,5.7-6.2c2.3-1.3,4.8-2,7.6-2c2,0,3.8,0.4,5.4,1.1
	c1.6,0.7,2.8,1.7,3.7,2.9c0.8,1.2,1.5,2.8,1.8,4.8l-3.7,0.4c-0.4-1.9-1.2-3.4-2.5-4.5c-1.3-1-2.9-1.6-4.8-1.6c-2,0-4,0.6-5.7,1.7
	c-1.8,1.1-3.2,2.8-4.3,5c-1.1,2.2-1.6,4.8-1.6,7.6c0,2.8,0.7,5,2.1,6.4c1.4,1.5,3.3,2.2,5.8,2.2c2.5,0,5.1-0.8,7.9-2.4l1.3-6.1
	H407.9z"/>
<path d="M364.6,246.1c0-5,1.5-9.1,4.4-12.2c2.9-3.1,6.4-4.7,10.6-4.7c3.5,0,6.4,1.1,8.6,3.4c2.2,2.3,3.3,5.4,3.3,9.2
	c0,2.8-0.6,5.3-1.7,7.7c-0.8,1.8-1.9,3.3-3.2,4.6c-1.3,1.3-2.6,2.3-4.1,3c-1.9,0.9-4,1.4-6.1,1.4c-2.3,0-4.3-0.5-6.2-1.6
	c-1.9-1.1-3.3-2.6-4.2-4.5C365,250.3,364.6,248.3,364.6,246.1 M368.3,246.3c0,1.7,0.3,3.2,1,4.6c0.7,1.4,1.7,2.5,3.1,3.3
	c1.4,0.8,2.8,1.2,4.3,1.2c1.5,0,2.8-0.3,4.1-1c1.3-0.7,2.5-1.6,3.5-2.9c1-1.2,1.9-2.7,2.4-4.5c0.6-1.8,0.9-3.6,0.9-5.3
	c0-2.8-0.8-5.1-2.4-6.7c-1.6-1.7-3.5-2.5-5.8-2.5c-3,0-5.6,1.3-7.8,3.8C369.4,238.6,368.3,242,368.3,246.3"/>
<polygon points="340.6,257.9 346.5,229.6 350.2,229.6 345,254.7 359.7,254.7 359,257.9 "/>
<path d="M311.9,246.1c0-5,1.5-9.1,4.4-12.2c2.9-3.1,6.4-4.7,10.6-4.7c3.5,0,6.4,1.1,8.6,3.4c2.2,2.3,3.3,5.4,3.3,9.2
	c0,2.8-0.6,5.3-1.7,7.7c-0.8,1.8-1.9,3.3-3.2,4.6c-1.3,1.3-2.6,2.3-4.1,3c-1.9,0.9-4,1.4-6.1,1.4c-2.3,0-4.3-0.5-6.2-1.6
	c-1.9-1.1-3.3-2.6-4.2-4.5C312.3,250.3,311.9,248.3,311.9,246.1 M315.6,246.3c0,1.7,0.3,3.2,1,4.6c0.7,1.4,1.7,2.5,3.1,3.3
	c1.4,0.8,2.8,1.2,4.3,1.2c1.5,0,2.8-0.3,4.1-1c1.3-0.7,2.5-1.6,3.5-2.9c1-1.2,1.9-2.7,2.4-4.5c0.6-1.8,0.9-3.6,0.9-5.3
	c0-2.8-0.8-5.1-2.4-6.7c-1.6-1.7-3.5-2.5-5.8-2.5c-3,0-5.6,1.3-7.8,3.8C316.7,238.6,315.6,242,315.6,246.3"/>
<path d="M281.7,257.9l5.9-28.3h3.7l4.8,10.6c1.5,3.2,2.6,6,3.5,8.2c0.5,1.3,1.1,3,1.7,5.2c0.3-2.4,0.8-4.8,1.3-7.4l3.5-16.6h3.7
	l-5.9,28.3H300l-7-16.3c-1.2-2.9-2.2-5.4-2.9-7.6c-0.2,1.8-0.6,4.1-1.1,6.8l-3.6,17.2H281.7z"/>
<polygon points="252.9,257.9 258.8,229.6 262.5,229.6 260.1,241.4 274.8,241.4 277.2,229.6 281,229.6 275.1,257.9 271.3,257.9 
	274.1,244.6 259.4,244.6 256.6,257.9 "/>
<path d="M246.5,248l3.7,0.5c-1.2,3.3-2.9,5.7-5.2,7.4c-2.3,1.7-4.8,2.5-7.6,2.5c-3.4,0-6.2-1-8.2-3.1c-2-2.1-3-5.1-3-9
	c0-5.1,1.5-9.3,4.6-12.6c2.7-3,6.1-4.5,10.2-4.5c3,0,5.4,0.8,7.3,2.4c1.9,1.6,2.9,3.8,3.2,6.5l-3.5,0.3c-0.4-2-1.1-3.6-2.3-4.6
	c-1.2-1-2.7-1.5-4.5-1.5c-3.5,0-6.3,1.5-8.4,4.6c-1.9,2.6-2.8,5.8-2.8,9.4c0,2.9,0.7,5.1,2.1,6.7c1.4,1.5,3.3,2.3,5.6,2.3
	c2,0,3.7-0.6,5.3-1.9C244.6,252.1,245.8,250.3,246.5,248"/>
<polygon points="198.1,257.9 204,229.6 224.4,229.6 223.8,232.9 207.1,232.9 205.3,241.7 221.5,241.7 220.8,244.9 204.6,244.9 
	202.6,254.7 220.4,254.7 219.7,257.9 "/>
<polygon points="181.2,257.9 186.4,232.9 177.1,232.9 177.8,229.6 200,229.6 199.4,232.9 190.2,232.9 184.9,257.9 "/>
<polygon points="162.5,146.2 151.4,211.5 185.7,211.5 196.9,146.2 "/>
<polygon points="505.9,128.9 472.7,128.9 491,22.1 524.1,22.1 "/>
<polygon points="183.8,22.1 177.5,58.5 211.9,58.5 218.2,22.1 "/>
<path d="M139.1,158.5l-0.2,2.6c-2.5,27.9-25.2,49.3-53.2,50.3l-2.6,0.1H25.9V180h56.5c0.5,0,1,0,1.5-0.1l1.1-0.1
	c11-1.3,20.3-10.4,21.9-21.4l0.2-1.8v-10.4h32V158.5"/>
<path d="M96.8,108.4h50.8l5.4-32H92.3h-0.8c-27.8,0.3-48.9,24-52.2,49.9l-0.2,2.7h32.6l0.5-1.9c3.2-9.7,11.8-17,21.9-18.5l1.2-0.1
	C95.8,108.4,96.3,108.4,96.8,108.4"/>
<polygon points="165.5,128.9 199.9,128.9 208.9,76.4 174.5,76.4 "/>
<path d="M272.5,76.4H327l-5.5,32h-46.1c-0.6,0-1.3,0-1.9,0.1l-0.7,0.1c-7.6,1-14.5,6.2-17.4,13.3c-0.2,0.6-0.4,1.2-0.6,1.8l-0.2,0.7
	l-0.9,4.5h-32.6h0.1l0.1-2.6c2.2-25.8,21.9-46.4,47.6-49.7l1.5-0.1C271,76.4,271.8,76.4,272.5,76.4"/>
<path d="M219,155.1v-8.9h32.6l-0.2,9.6c0,0.5,0,1,0.1,1.5l0.2,1.1c2.4,11.1,11.4,19.8,22.7,21.3l0.9,0.1c0.6,0.1,1.2,0.1,1.9,0.1
	h32.9l-5.3,31.5h-32.2c-1.1,0-2.1-0.1-3.2-0.2l-1.1-0.1c-26.2-4.1-46.5-25.3-49-51.8l-0.1-1C219.1,157.5,219,156,219,155.1"/>
<polygon points="502.9,146.2 491.8,211.5 458.6,211.5 469.7,146.2 "/>
<polygon points="438.5,211.5 401.4,211.5 386.1,161.2 366.9,175.7 360.8,211.5 326.6,211.5 337.7,146.2 418.6,146.2 "/>
<polygon points="461.6,76.4 414.2,76.4 382.3,108.4 378.5,108.4 393.2,22.1 359,22.1 340.7,128.9 409.2,128.9 "/>
</svg>
